<svg width="2641" height="1174" xmlns="http://www.w3.org/2000/svg" xmlns:xlink="http://www.w3.org/1999/xlink" xml:space="preserve" overflow="hidden"><defs><clipPath id="clip0"><rect x="698" y="734" width="2641" height="1174"/></clipPath></defs><g clip-path="url(#clip0)" transform="translate(-698 -734)"><rect x="0" y="0" width="2641" height="1174" fill="#EDEFF3" transform="matrix(1 0 0 -1 698 1908)"/><path d="M582.387 233.885C665.799 208.883 742.522 166.586 817.569 123.362 926.234 60.8373 1075.71-46.3739 1205.05 21.9914 1300.51 72.4337 1341.32 185.191 1304.69 285.139 1283.66 342.514 1247.07 392.714 1215.09 444.255 1060.7 693.121 1255.48 716.194 1223.39 879.207 1199.72 999.401 1055 1068.92 951.023 999.271 839.608 924.575 811.736 748.623 680.53 757.646 598.987 763.246 521.388 816.64 452.549 855.892-25.4363 1128.37-314.97 503.031 582.387 233.885Z" fill="#FFFFFF" fill-rule="evenodd" fill-opacity="0.4" transform="matrix(1 0 0 -1 1359 1834)"/><path d="M13.3968 9.12937C-17.8261 27.0665 11.7475 59.4173 38.8652 63.5 82.4773 70.0445 108.047 54.4177 100.771 31.5208 92.4063 5.15025 48.8883-11.2066 13.3968 9.12937Z" fill="#FFFFFF" fill-rule="evenodd" fill-opacity="0.4" transform="matrix(1 0 0 -1 1987 1012)"/><path d="M2.3449 43.5949C-10.5828 77.3716 33.0733 84.1071 56.8315 70.2031 95.024 47.8109 104.994 19.4345 84.7527 6.04778 61.4187-9.37197 17.0474 5.24672 2.3449 43.5949Z" fill="#FFFFFF" fill-rule="evenodd" fill-opacity="0.4" transform="matrix(1 0 0 -1 1861 1748)"/><path d="M1.60312 29.9975C-7.23981 53.2545 22.6441 57.8935 38.8845 48.3208 65.0225 32.9063 71.8417 13.378 57.9795 4.16125 42.0253-6.44939 11.6693 3.6142 1.60312 29.9975Z" fill="#FFFFFF" fill-rule="evenodd" fill-opacity="0.4" transform="matrix(1 0 0 -1 2034 1829)"/><path d="M897.5 1669.17C1530.14 1669.17 1702.68 965.5 2019 965.5 2306.56 965.5 2479.1 1669.17 3140.5 1669.17L3140.5 1676.5 897.5 1676.5Z" stroke="#C8CCDA" stroke-width="36.6667" stroke-linecap="round" stroke-linejoin="round" stroke-miterlimit="10" fill="none" fill-rule="evenodd"/><path d="M2756 947.669C2756 906.43 2789.43 873 2830.67 873L3129.33 873C3170.57 873 3204 906.43 3204 947.669L3204 1693.33C3204 1734.57 3170.57 1768 3129.33 1768L2830.67 1768C2789.43 1768 2756 1734.57 2756 1693.33Z" fill="#BECEE4" fill-rule="evenodd" fill-opacity="0.4"/><path d="M833 947.669C833 906.43 866.43 873 907.668 873L1206.33 873C1247.57 873 1281 906.43 1281 947.669L1281 1693.33C1281 1734.57 1247.57 1768 1206.33 1768L907.668 1768C866.43 1768 833 1734.57 833 1693.33Z" fill="#BECEE4" fill-rule="evenodd" fill-opacity="0.4"/><g><g><g><path d="M188.5 48.3333 147.417 48.3333 147.417 36.25C147.417 26.825 139.925 19.3333 130.5 19.3333L101.5 19.3333C92.075 19.3333 84.5833 26.825 84.5833 36.25L84.5833 48.3333 43.5 48.3333C38.1833 48.3333 33.8333 52.6833 33.8333 58L33.8333 67.6667 198.167 67.6667 198.167 58C198.167 52.6833 193.817 48.3333 188.5 48.3333ZM99.0833 36.25C99.0833 34.8 100.05 33.8333 101.5 33.8333L130.5 33.8333C131.95 33.8333 132.917 34.8 132.917 36.25L132.917 48.3333 99.0833 48.3333 99.0833 36.25Z" fill="#F8F8FC" transform="matrix(1 0 0 1.00431 2864 1204)"/><path d="M48.3333 203C48.3333 208.317 52.6833 212.667 58 212.667L174 212.667C179.317 212.667 183.667 208.317 183.667 203L183.667 77.3333 48.3333 77.3333 48.3333 203ZM147.417 91.8333 161.917 91.8333 161.917 198.167 147.417 198.167 147.417 91.8333ZM108.75 91.8333 123.25 91.8333 123.25 198.167 108.75 198.167 108.75 91.8333ZM70.0833 91.8333 84.5833 91.8333 84.5833 198.167 70.0833 198.167 70.0833 91.8333Z" fill="#F8F8FC" transform="matrix(1 0 0 1.00431 2864 1204)"/></g></g></g><g><g><g><path d="M188.5 48.3333 147.417 48.3333 147.417 36.25C147.417 26.825 139.925 19.3333 130.5 19.3333L101.5 19.3333C92.075 19.3333 84.5833 26.825 84.5833 36.25L84.5833 48.3333 43.5 48.3333C38.1833 48.3333 33.8333 52.6833 33.8333 58L33.8333 67.6667 198.167 67.6667 198.167 58C198.167 52.6833 193.817 48.3333 188.5 48.3333ZM99.0833 36.25C99.0833 34.8 100.05 33.8333 101.5 33.8333L130.5 33.8333C131.95 33.8333 132.917 34.8 132.917 36.25L132.917 48.3333 99.0833 48.3333 99.0833 36.25Z" fill="#F8F8FC" transform="matrix(1 0 0 1.00431 941 1204)"/><path d="M48.3333 203C48.3333 208.317 52.6833 212.667 58 212.667L174 212.667C179.317 212.667 183.667 208.317 183.667 203L183.667 77.3333 48.3333 77.3333 48.3333 203ZM147.417 91.8333 161.917 91.8333 161.917 198.167 147.417 198.167 147.417 91.8333ZM108.75 91.8333 123.25 91.8333 123.25 198.167 108.75 198.167 108.75 91.8333ZM70.0833 91.8333 84.5833 91.8333 84.5833 198.167 70.0833 198.167 70.0833 91.8333Z" fill="#F8F8FC" transform="matrix(1 0 0 1.00431 941 1204)"/></g></g></g></g></svg>